<svg width="24" height="24" viewBox="0 0 24 24" fill="none" xmlns="http://www.w3.org/2000/svg">
<g clip-path="url(#clip0_256_92)">
<path d="M17.25 7.8105L19.5 5.5605L18.4395 4.5L15.9698 6.96975C15.8291 7.11037 15.7501 7.3011 15.75 7.5V10.5H10.4445L11.3018 22.5H17.9483L18.8055 10.5H17.25V7.8105ZM16.5525 21H12.6975L12.0555 12H17.1945L16.5525 21Z" fill="#FF003D"/>
<path d="M12 5.28825V3C12 2.80109 11.921 2.61032 11.7803 2.46967C11.6397 2.32902 11.4489 2.25 11.25 2.25H6.75C6.55109 2.25 6.36033 2.32902 6.21967 2.46967C6.07902 2.61032 6 2.80109 6 3V5.28825C5.52767 5.70626 5.14964 6.21996 4.89103 6.79525C4.63242 7.37054 4.49912 7.99426 4.5 8.625V21.75C4.5 21.9489 4.57902 22.1397 4.71967 22.2803C4.86033 22.421 5.05109 22.5 5.25 22.5H9V21H6V8.625C6 6.858 7.5 6.015 7.5 6.015V3.75H10.5V6.015C10.5 6.015 12 6.858 12 8.625V9H13.5V8.625C13.5009 7.99426 13.3676 7.37054 13.109 6.79525C12.8504 6.21996 12.4723 5.70626 12 5.28825Z" fill="#FF003D"/>
</g>
<defs>
<clipPath id="clip0_256_92">
<rect width="24" height="24" fill="white"/>
</clipPath>
</defs>
</svg>
