<svg width="60" height="60" viewBox="0 0 60 60" fill="none" xmlns="http://www.w3.org/2000/svg">
<path d="M34.5999 27.765C34.8024 27.9538 35.0062 28.1325 35.2149 28.2988C36.8274 29.5925 38.5512 30.1488 40.1924 30.2363C42.9549 30.3838 45.4124 29.1513 46.4112 28.6488L46.6924 28.5113C47.2921 28.2285 47.755 27.719 47.9791 27.095C48.2032 26.471 48.1702 25.7835 47.8874 25.1838C47.6046 24.5841 47.0952 24.1212 46.4711 23.8971C45.8471 23.673 45.1596 23.706 44.5599 23.9888L44.1424 24.1888C43.0374 24.7225 41.8087 25.315 40.4587 25.2438C39.8024 25.2075 39.0949 25.0013 38.3437 24.3988C37.5624 23.7713 36.6287 22.63 35.7262 20.5588C34.9949 18.8813 33.9049 17.5813 32.3574 16.8425C30.8749 16.135 29.2974 16.105 27.8912 16.2725C24.1224 16.72 21.2587 18.905 19.3112 20.935C17.7074 22.605 16.5112 24.4175 15.9237 25.3063C15.8049 25.4875 15.7112 25.63 15.6437 25.725C15.2732 26.2674 15.1311 26.9338 15.248 27.5801C15.3649 28.2265 15.7315 28.8008 16.2685 29.179C16.8055 29.5573 17.4698 29.7089 18.1178 29.6013C18.7657 29.4936 19.3453 29.1353 19.7312 28.6038C19.8712 28.4063 20.0249 28.175 20.1962 27.9163C20.8212 26.9763 21.6774 25.6888 22.9187 24.3963C23.8962 23.3775 24.9912 22.4963 26.1962 21.9175L25.2799 24.445C24.3549 27.0025 23.3262 29.87 23.1599 30.445C23.0489 30.8338 23.025 31.2422 23.0899 31.6413C23.1287 31.8938 23.1962 32.1075 23.2499 32.2575C23.3562 32.555 23.4974 32.8375 23.6224 33.065C23.8774 33.535 24.2274 34.0763 24.6037 34.625C25.3662 35.7388 26.3937 37.1075 27.4124 38.4325C28.3124 39.6013 29.2287 40.765 29.9824 41.7225L30.2837 42.1063C30.6887 42.62 31.0274 43.0513 31.2762 43.375C31.3887 43.52 31.4637 43.6225 31.5137 43.6875C31.5624 43.8538 31.6237 44.095 31.6974 44.4113C31.8437 45.04 32.0112 45.8575 32.1887 46.7563C32.3037 47.3338 32.4224 47.95 32.5387 48.5588C32.7762 49.7875 33.0074 50.9875 33.1849 51.79C33.2558 52.1106 33.3892 52.4141 33.5774 52.6831C33.7656 52.9522 34.0049 53.1815 34.2818 53.3581C34.5586 53.5346 34.8675 53.6549 35.1908 53.7121C35.5141 53.7693 35.8456 53.7622 36.1662 53.6913C36.4867 53.6204 36.7902 53.487 37.0593 53.2988C37.3283 53.1106 37.5577 52.8712 37.7342 52.5944C37.9108 52.3176 38.0311 52.0087 38.0882 51.6854C38.1454 51.362 38.1383 51.0306 38.0674 50.71C37.9049 49.9725 37.6962 48.8975 37.4699 47.72C37.3487 47.0925 37.2224 46.4363 37.0949 45.7875C36.9322 44.9486 36.7564 44.1122 36.5674 43.2788C36.492 42.9474 36.4078 42.6181 36.3149 42.2913C36.2524 42.0813 36.1249 41.6438 35.9074 41.2625C35.7055 40.9431 35.486 40.6351 35.2499 40.34L35.2374 40.325C34.9699 39.9763 34.6149 39.525 34.2124 39.0138L33.9087 38.6275C32.9603 37.4263 32.0194 36.2192 31.0862 35.0063L34.5999 27.765ZM25.7587 42.9125L22.1899 37.9538L21.1649 40.9025L14.9474 39.4413C14.3019 39.2896 13.6227 39.4006 13.059 39.7497C12.4953 40.0989 12.0935 40.6577 11.9418 41.3032C11.7901 41.9486 11.9011 42.6279 12.2502 43.1916C12.5994 43.7552 13.1582 44.1571 13.8037 44.3088L22.2137 46.285C22.8153 46.4263 23.448 46.3396 23.9895 46.0418C24.5311 45.7441 24.9431 45.2562 25.1462 44.6725L25.7587 42.9125Z" stroke="#FF003D" stroke-width="2.5" stroke-linecap="round" stroke-linejoin="round"/>
<path fill-rule="evenodd" clip-rule="evenodd" d="M40.0012 15C40.9958 15 41.9496 14.6049 42.6529 13.9017C43.3561 13.1984 43.7512 12.2446 43.7512 11.25C43.7512 10.2554 43.3561 9.30161 42.6529 8.59835C41.9496 7.89509 40.9958 7.5 40.0012 7.5C39.0067 7.5 38.0528 7.89509 37.3496 8.59835C36.6463 9.30161 36.2512 10.2554 36.2512 11.25C36.2512 12.2446 36.6463 13.1984 37.3496 13.9017C38.0528 14.6049 39.0067 15 40.0012 15ZM40.0012 17.5C41.6588 17.5 43.2485 16.8415 44.4206 15.6694C45.5927 14.4973 46.2512 12.9076 46.2512 11.25C46.2512 9.5924 45.5927 8.00269 44.4206 6.83058C43.2485 5.65848 41.6588 5 40.0012 5C38.3436 5 36.7539 5.65848 35.5818 6.83058C34.4097 8.00269 33.7512 9.5924 33.7512 11.25C33.7512 12.9076 34.4097 14.4973 35.5818 15.6694C36.7539 16.8415 38.3436 17.5 40.0012 17.5Z" fill="#FF003D"/>
</svg>
