<svg width="24" height="24" viewBox="0 0 24 24" fill="none" xmlns="http://www.w3.org/2000/svg">
<g clip-path="url(#clip0_256_96)">
<g clip-path="url(#clip1_256_96)">
<path d="M13.84 11.106C13.921 11.1815 14.0025 11.253 14.086 11.3195C14.731 11.837 15.4205 12.0595 16.077 12.0945C17.182 12.1535 18.165 11.6605 18.5645 11.4595L18.677 11.4045C18.9169 11.2914 19.102 11.0876 19.1917 10.838C19.2813 10.5884 19.2681 10.3134 19.155 10.0735C19.0419 9.83365 18.8381 9.64852 18.5885 9.55888C18.3389 9.46923 18.0639 9.48242 17.824 9.59554L17.657 9.67554C17.215 9.88904 16.7235 10.126 16.1835 10.0975C15.921 10.083 15.638 10.0005 15.3375 9.75953C15.025 9.50853 14.6515 9.05204 14.2905 8.22354C13.998 7.55254 13.562 7.03254 12.943 6.73704C12.35 6.45404 11.719 6.44204 11.1565 6.50904C9.64901 6.68804 8.50351 7.56203 7.72451 8.37403C7.08301 9.04203 6.60451 9.76704 6.36951 10.1225C6.32201 10.195 6.28451 10.252 6.25751 10.29C6.10932 10.507 6.05247 10.7735 6.09924 11.0321C6.14602 11.2906 6.29266 11.5204 6.50746 11.6716C6.72227 11.8229 6.98798 11.8836 7.24716 11.8405C7.50634 11.7975 7.73816 11.6541 7.89251 11.4415C7.94851 11.3625 8.01001 11.27 8.07851 11.1665C8.32851 10.7905 8.67101 10.2755 9.16751 9.75854C9.55851 9.35104 9.99651 8.99854 10.4785 8.76704L10.112 9.77804C9.74201 10.801 9.33051 11.948 9.26401 12.178C9.21962 12.3335 9.21006 12.4969 9.23601 12.6565C9.25151 12.7575 9.27851 12.843 9.30001 12.903C9.34251 13.022 9.39901 13.135 9.44901 13.226C9.55101 13.414 9.69101 13.6305 9.84151 13.85C10.1465 14.2955 10.5575 14.843 10.965 15.373C11.325 15.8405 11.6915 16.306 11.993 16.689L12.1135 16.8425C12.2755 17.048 12.411 17.2205 12.5105 17.35C12.5555 17.408 12.5855 17.449 12.6055 17.475C12.625 17.5415 12.6495 17.638 12.679 17.7645C12.7375 18.016 12.8045 18.343 12.8755 18.7025C12.9215 18.9335 12.969 19.18 13.0155 19.4235C13.1105 19.915 13.203 20.395 13.274 20.716C13.3024 20.8443 13.3557 20.9657 13.431 21.0733C13.5063 21.1809 13.602 21.2726 13.7128 21.3433C13.8235 21.4139 13.947 21.462 14.0764 21.4849C14.2057 21.5077 14.3383 21.5049 14.4665 21.4765C14.5947 21.4482 14.7161 21.3948 14.8238 21.3195C14.9314 21.2443 15.0231 21.1485 15.0937 21.0378C15.1644 20.9271 15.2125 20.8035 15.2353 20.6742C15.2582 20.5448 15.2554 20.4123 15.227 20.284C15.162 19.989 15.0785 19.559 14.988 19.088C14.9395 18.837 14.889 18.5745 14.838 18.315C14.7729 17.9795 14.7026 17.6449 14.627 17.3115C14.5969 17.179 14.5632 17.0473 14.526 16.9165C14.501 16.8325 14.45 16.6575 14.363 16.505C14.2823 16.3773 14.1945 16.2541 14.1 16.136L14.095 16.13C13.988 15.9905 13.846 15.81 13.685 15.6055L13.5635 15.451C13.1842 14.9706 12.8078 14.4877 12.4345 14.0025L13.84 11.106ZM10.3035 17.165L8.87601 15.1815L8.46601 16.361L5.97901 15.7765C5.72082 15.7159 5.44911 15.7602 5.22364 15.8999C4.99818 16.0396 4.83743 16.2631 4.77676 16.5213C4.71609 16.7795 4.76047 17.0512 4.90014 17.2767C5.03981 17.5021 5.26332 17.6629 5.52151 17.7235L8.88551 18.514C9.12618 18.5705 9.37924 18.5359 9.59586 18.4168C9.81247 18.2976 9.97729 18.1025 10.0585 17.869L10.3035 17.165Z" stroke="#FF003D" stroke-linecap="round" stroke-linejoin="round"/>
<path fill-rule="evenodd" clip-rule="evenodd" d="M16.0005 6C16.3983 6 16.7798 5.84196 17.0611 5.56066C17.3425 5.27936 17.5005 4.89782 17.5005 4.5C17.5005 4.10218 17.3425 3.72064 17.0611 3.43934C16.7798 3.15804 16.3983 3 16.0005 3C15.6027 3 15.2211 3.15804 14.9398 3.43934C14.6585 3.72064 14.5005 4.10218 14.5005 4.5C14.5005 4.89782 14.6585 5.27936 14.9398 5.56066C15.2211 5.84196 15.6027 6 16.0005 6ZM16.0005 7C16.6635 7 17.2994 6.73661 17.7683 6.26777C18.2371 5.79893 18.5005 5.16304 18.5005 4.5C18.5005 3.83696 18.2371 3.20107 17.7683 2.73223C17.2994 2.26339 16.6635 2 16.0005 2C15.3374 2 14.7016 2.26339 14.2327 2.73223C13.7639 3.20107 13.5005 3.83696 13.5005 4.5C13.5005 5.16304 13.7639 5.79893 14.2327 6.26777C14.7016 6.73661 15.3374 7 16.0005 7Z" fill="#FF003D"/>
</g>
</g>
<defs>
<clipPath id="clip0_256_96">
<rect width="24" height="24" fill="white"/>
</clipPath>
<clipPath id="clip1_256_96">
<rect width="24" height="24" fill="white"/>
</clipPath>
</defs>
</svg>
