<svg width="60" height="60" viewBox="0 0 60 60" fill="none" xmlns="http://www.w3.org/2000/svg">
<path d="M45.625 8.125C46.0781 8.12502 46.5159 8.28911 46.8573 8.58692C47.1988 8.88473 47.4209 9.29612 47.4825 9.745L47.5 10V50C47.4999 50.4751 47.3194 50.9324 46.9951 51.2795C46.6707 51.6266 46.2268 51.8377 45.7528 51.8701C45.2788 51.9024 44.8103 51.7537 44.4418 51.4539C44.0732 51.1541 43.8323 50.7256 43.7675 50.255L43.75 50V37.5H38.125C37.6719 37.5 37.2341 37.3359 36.8927 37.0381C36.5512 36.7403 36.3291 36.3289 36.2675 35.88L36.25 35.625V17.5C36.25 15.0136 37.2377 12.629 38.9959 10.8709C40.754 9.11272 43.1386 8.125 45.625 8.125ZM30.625 8.125C31.0781 8.12502 31.5159 8.28911 31.8573 8.58692C32.1988 8.88473 32.4209 9.29612 32.4825 9.745L32.5 10V20C32.5 24.8825 29 28.945 24.375 29.825V50C24.3749 50.4751 24.1944 50.9324 23.8701 51.2795C23.5457 51.6266 23.1018 51.8377 22.6278 51.8701C22.1538 51.9024 21.6853 51.7537 21.3168 51.4539C20.9482 51.1541 20.7073 50.7256 20.6425 50.255L20.625 50V29.825C18.4269 29.4047 16.4332 28.2597 14.9626 26.5728C13.4919 24.886 12.6293 22.7548 12.5125 20.52L12.5 20V10C12.5001 9.52494 12.6806 9.06765 13.0049 8.72052C13.3293 8.37339 13.7732 8.16232 14.2472 8.12994C14.7212 8.09756 15.1897 8.24629 15.5582 8.54608C15.9268 8.84587 16.1677 9.27438 16.2325 9.745L16.25 10V20C16.25 22.8 18.09 25.1675 20.625 25.965V10C20.6251 9.52494 20.8056 9.06765 21.1299 8.72052C21.4543 8.37339 21.8982 8.16232 22.3722 8.12994C22.8462 8.09756 23.3147 8.24629 23.6832 8.54608C24.0518 8.84587 24.2927 9.27438 24.3575 9.745L24.375 10V25.9625C25.568 25.5865 26.6209 24.8615 27.3976 23.8811C28.1744 22.9007 28.6394 21.7099 28.7325 20.4625L28.75 20V10C28.75 9.50272 28.9475 9.02581 29.2992 8.67417C29.6508 8.32254 30.1277 8.125 30.625 8.125ZM43.75 33.75V12.195C42.7223 12.5587 41.8223 13.213 41.1593 14.0784C40.4962 14.9438 40.0987 15.983 40.015 17.07L40 17.5V33.75H43.75Z" fill="#FF003D"/>
</svg>
