<svg width="25" height="25" viewBox="0 0 25 25" fill="none" xmlns="http://www.w3.org/2000/svg">
<path d="M21.0124 7.03125H19.0739L14.3176 11.7854C14.4814 12.2029 14.4965 12.6641 14.3603 13.0914C14.2241 13.5187 13.9449 13.886 13.5697 14.1317C13.1944 14.3773 12.7461 14.4863 12.3 14.4402C11.8539 14.3942 11.4372 14.1959 11.1201 13.8788C10.803 13.5617 10.6047 13.145 10.5587 12.6989C10.5126 12.2528 10.6216 11.8044 10.8672 11.4292C11.1129 11.054 11.4802 10.7748 11.9075 10.6386C12.3348 10.5024 12.796 10.5174 13.2135 10.6813L17.9687 5.92604V3.9875C17.9688 3.7281 18.0718 3.47935 18.2551 3.29584L20.0572 1.49375C20.0905 1.46009 20.1324 1.43618 20.1783 1.42461C20.2242 1.41304 20.2724 1.41426 20.3176 1.42813C20.4103 1.45521 20.4791 1.53229 20.4978 1.62709L20.977 4.02396L23.3728 4.50313C23.4666 4.52188 23.5437 4.59063 23.5708 4.68333C23.5844 4.72837 23.5856 4.77627 23.5743 4.82194C23.5629 4.86761 23.5394 4.90935 23.5062 4.94271L21.703 6.74479C21.6124 6.83559 21.5048 6.90762 21.3862 6.95677C21.2677 7.00593 21.1407 7.03124 21.0124 7.03125Z" fill="#FF003D"/>
<path d="M2.73438 12.5C2.73437 15.09 3.76325 17.5739 5.59466 19.4053C7.42607 21.2367 9.91 22.2656 12.5 22.2656C13.7824 22.2656 15.0523 22.013 16.2371 21.5223C17.422 21.0315 18.4985 20.3122 19.4053 19.4053C20.3122 18.4985 21.0315 17.422 21.5223 16.2371C22.013 15.0523 22.2656 13.7824 22.2656 12.5C22.2656 11.5646 22.1344 10.6604 21.8896 9.80521C21.8409 9.60884 21.8703 9.40126 21.9716 9.22614C22.0729 9.05102 22.2382 8.92202 22.4327 8.86628C22.6271 8.81054 22.8356 8.83242 23.0143 8.9273C23.193 9.02218 23.3279 9.18267 23.3906 9.375C23.676 10.3687 23.8281 11.4167 23.8281 12.5C23.8281 18.7562 18.7562 23.8281 12.5 23.8281C6.24375 23.8281 1.17188 18.7562 1.17188 12.5C1.17188 6.24375 6.24375 1.17187 12.5 1.17187C13.5573 1.17083 14.6083 1.31771 15.625 1.60833C15.7241 1.63614 15.8168 1.68326 15.8976 1.747C15.9785 1.81073 16.0459 1.88982 16.0961 1.97971C16.1463 2.06961 16.1782 2.16853 16.1901 2.27081C16.2019 2.37308 16.1934 2.47668 16.165 2.57565C16.1367 2.67463 16.0891 2.76702 16.0249 2.84753C15.9607 2.92803 15.8813 2.99506 15.7911 3.04476C15.7009 3.09445 15.6018 3.12584 15.4995 3.1371C15.3972 3.14837 15.2936 3.1393 15.1948 3.11041C14.3184 2.86013 13.4114 2.73356 12.5 2.73437C9.91 2.73437 7.42607 3.76325 5.59466 5.59466C3.76325 7.42607 2.73438 9.90999 2.73438 12.5Z" fill="#FF003D"/>
<path d="M7.42181 12.5C7.42472 13.1899 7.56821 13.872 7.84353 14.5046C8.11884 15.1372 8.52021 15.7071 9.02311 16.1794C9.52601 16.6517 10.1199 17.0166 10.7685 17.2517C11.4172 17.4869 12.1069 17.5873 12.7956 17.547C13.4844 17.5067 14.1577 17.3264 14.7744 17.0172C15.3912 16.7079 15.9384 16.2762 16.3828 15.7485C16.8271 15.2207 17.1592 14.6079 17.3588 13.9474C17.5584 13.287 17.6213 12.5928 17.5437 11.9073C17.5218 11.7685 17.5379 11.6263 17.5903 11.4958C17.6426 11.3654 17.7293 11.2515 17.841 11.1663C17.9528 11.0811 18.0856 11.0278 18.2252 11.0119C18.3649 10.996 18.5062 11.0181 18.6343 11.076C18.8958 11.1927 19.0718 11.4417 19.0947 11.7271C19.2565 13.0971 18.9874 14.4835 18.3248 15.6936C17.6623 16.9036 16.6392 17.8772 15.3978 18.479C14.1564 19.0808 12.7584 19.2809 11.398 19.0515C10.0377 18.8221 8.7826 18.1746 7.80723 17.199C6.83212 16.2244 6.18444 14.9706 5.95402 13.6113C5.72361 12.2521 5.92187 10.8549 6.52131 9.61338C7.12076 8.3719 8.09167 7.34773 9.2994 6.68291C10.5071 6.01808 11.8918 5.74556 13.2614 5.90313C13.3649 5.91273 13.4655 5.94291 13.5572 5.99189C13.649 6.04088 13.73 6.10767 13.7955 6.18837C13.8611 6.26907 13.9099 6.36205 13.9391 6.46186C13.9683 6.56166 13.9772 6.66629 13.9654 6.7696C13.9536 6.87291 13.9213 6.97283 13.8704 7.0635C13.8195 7.15417 13.751 7.23376 13.669 7.29762C13.5869 7.36147 13.4929 7.4083 13.3925 7.43537C13.2921 7.46243 13.1873 7.46917 13.0843 7.45521C12.3729 7.37296 11.6521 7.44209 10.9693 7.65806C10.2864 7.87403 9.65701 8.23197 9.12228 8.70837C8.58754 9.18477 8.1596 9.76887 7.86654 10.4223C7.57348 11.0758 7.42192 11.7838 7.42181 12.5Z" fill="#FF003D"/>
</svg>
