<svg width="30" height="30" viewBox="0 0 30 30" fill="none" xmlns="http://www.w3.org/2000/svg">
<path d="M18.75 0.9375C18.75 2.68555 19.0723 4.29688 19.7168 5.77148C20.3613 7.24609 21.2891 8.60352 22.5 9.84375C23.7109 11.084 24.6387 12.4414 25.2832 13.916C25.9277 15.3906 26.25 17.002 26.25 18.75C26.25 19.7852 26.1182 20.7812 25.8545 21.7383C25.5908 22.6953 25.21 23.5889 24.7119 24.4189C24.2139 25.249 23.6279 26.0107 22.9541 26.7041C22.2803 27.3975 21.5234 27.9834 20.6836 28.4619C19.8438 28.9404 18.9453 29.3164 17.9883 29.5898C17.0312 29.8633 16.0352 30 15 30C13.9648 30 12.9688 29.8682 12.0117 29.6045C11.0547 29.3408 10.1611 28.96 9.33105 28.4619C8.50098 27.9639 7.73926 27.3779 7.0459 26.7041C6.35254 26.0303 5.7666 25.2734 5.28809 24.4336C4.80957 23.5938 4.43359 22.6953 4.16016 21.7383C3.88672 20.7812 3.75 19.7852 3.75 18.75C3.75 17.9297 3.83789 17.124 4.01367 16.333C4.18945 15.542 4.44336 14.7852 4.77539 14.0625C5.10742 13.3398 5.51758 12.6514 6.00586 11.9971C6.49414 11.3428 7.0459 10.752 7.66113 10.2246C7.72949 10.5957 7.82227 10.9766 7.93945 11.3672C8.05664 11.7578 8.19336 12.1484 8.34961 12.5391C8.50586 12.9297 8.69141 13.3008 8.90625 13.6523C9.12109 14.0039 9.3457 14.3311 9.58008 14.6338C9.77539 14.8779 10.0293 15 10.3418 15C10.6055 15 10.8252 14.9072 11.001 14.7217C11.1768 14.5361 11.2695 14.3115 11.2793 14.0479C11.2793 13.9404 11.2646 13.8428 11.2354 13.7549C11.2061 13.667 11.1572 13.5791 11.0889 13.4912C10.8154 13.0908 10.5762 12.6953 10.3711 12.3047C10.166 11.9141 9.98535 11.5137 9.8291 11.1035C9.67285 10.6934 9.56055 10.2686 9.49219 9.8291C9.42383 9.38965 9.38477 8.92578 9.375 8.4375C9.375 7.27539 9.59473 6.18164 10.0342 5.15625C10.4736 4.13086 11.0791 3.2373 11.8506 2.47559C12.6221 1.71387 13.5156 1.11328 14.5312 0.673828C15.5469 0.234375 16.6406 0.00976562 17.8125 0H18.75V0.9375ZM15 28.125C16.2988 28.125 17.5146 27.8809 18.6475 27.3926C19.7803 26.9043 20.7764 26.2354 21.6357 25.3857C22.4951 24.5361 23.1641 23.5449 23.6426 22.4121C24.1211 21.2793 24.3652 20.0586 24.375 18.75C24.375 17.2754 24.1016 15.9033 23.5547 14.6338C23.0078 13.3643 22.2168 12.2119 21.1816 11.1768C19.9121 9.89746 18.916 8.48633 18.1934 6.94336C17.4707 5.40039 17.041 3.73047 16.9043 1.93359C16.0938 2.04102 15.3467 2.28516 14.6631 2.66602C13.9795 3.04688 13.3789 3.53027 12.8613 4.11621C12.3438 4.70215 11.9482 5.36133 11.6748 6.09375C11.4014 6.82617 11.2598 7.60742 11.25 8.4375C11.25 9.19922 11.3623 9.8877 11.5869 10.5029C11.8115 11.1182 12.1436 11.7334 12.583 12.3486C12.7686 12.6025 12.9102 12.8662 13.0078 13.1396C13.1055 13.4131 13.1592 13.7158 13.1689 14.0479C13.1689 14.4385 13.0957 14.8047 12.9492 15.1465C12.8027 15.4883 12.5977 15.7861 12.334 16.04C12.0703 16.2939 11.7725 16.499 11.4404 16.6553C11.1084 16.8115 10.7422 16.8848 10.3418 16.875C9.89258 16.875 9.49707 16.792 9.15527 16.626C8.81348 16.46 8.51074 16.2354 8.24707 15.9521C7.9834 15.6689 7.74902 15.3516 7.54395 15C7.33887 14.6484 7.14355 14.2969 6.95801 13.9453C6.50879 14.6582 6.17676 15.4248 5.96191 16.2451C5.74707 17.0654 5.63477 17.9004 5.625 18.75C5.625 20.0488 5.86914 21.2646 6.35742 22.3975C6.8457 23.5303 7.51465 24.5264 8.36426 25.3857C9.21387 26.2451 10.2051 26.9141 11.3379 27.3926C12.4707 27.8711 13.6914 28.1152 15 28.125Z" fill="white"/>
</svg>
