<svg width="25" height="25" viewBox="0 0 25 25" fill="none" xmlns="http://www.w3.org/2000/svg">
<path d="M15.7551 21.9792L6.9791 13.2292C6.87493 13.125 6.80098 13.0122 6.75723 12.8906C6.71348 12.7691 6.69195 12.6389 6.69264 12.5C6.69264 12.3611 6.71417 12.2309 6.75723 12.1094C6.80028 11.9879 6.87424 11.875 6.9791 11.7708L15.7551 2.9948C15.9982 2.75175 16.302 2.63022 16.6666 2.63022C17.0312 2.63022 17.3437 2.76043 17.6041 3.02084C17.8645 3.28126 17.9947 3.58508 17.9947 3.9323C17.9947 4.27952 17.8645 4.58334 17.6041 4.84376L9.94785 12.5L17.6041 20.1563C17.8472 20.3993 17.9687 20.699 17.9687 21.0552C17.9687 21.4115 17.8385 21.7195 17.5781 21.9792C17.3176 22.2396 17.0138 22.3698 16.6666 22.3698C16.3194 22.3698 16.0156 22.2396 15.7551 21.9792Z" fill="white"/>
</svg>
