<svg width="30" height="30" viewBox="0 0 30 30" fill="none" xmlns="http://www.w3.org/2000/svg">
<path d="M15 8.43762C13.7021 8.43762 12.4333 8.8225 11.3541 9.5436C10.2749 10.2647 9.43374 11.2896 8.93704 12.4888C8.44034 13.6879 8.31038 15.0074 8.5636 16.2804C8.81681 17.5534 9.44183 18.7227 10.3596 19.6405C11.2774 20.5583 12.4467 21.1833 13.7197 21.4365C14.9927 21.6897 16.3122 21.5598 17.5114 21.0631C18.7105 20.5664 19.7354 19.7252 20.4565 18.646C21.1776 17.5668 21.5625 16.2981 21.5625 15.0001C21.5625 13.2596 20.8711 11.5904 19.6404 10.3597C18.4097 9.12902 16.7405 8.43762 15 8.43762ZM15 19.6876C14.0729 19.6876 13.1666 19.4127 12.3958 18.8976C11.6249 18.3826 11.0241 17.6505 10.6693 16.7939C10.3145 15.9374 10.2217 14.9949 10.4026 14.0856C10.5834 13.1763 11.0299 12.3411 11.6854 11.6856C12.341 11.03 13.1762 10.5836 14.0855 10.4027C14.9948 10.2218 15.9373 10.3146 16.7938 10.6694C17.6504 11.0242 18.3824 11.625 18.8975 12.3959C19.4126 13.1667 19.6875 14.073 19.6875 15.0001C19.6875 16.2433 19.1936 17.4356 18.3146 18.3147C17.4355 19.1938 16.2432 19.6876 15 19.6876ZM27.5156 17.6251L25.7695 15.3048C25.7812 15.0939 25.7695 14.8712 25.7695 14.7071L27.5156 12.3751C27.6025 12.2616 27.6615 12.1294 27.6879 11.9889C27.7144 11.8485 27.7076 11.7038 27.668 11.5665C27.3726 10.4861 26.9435 9.44683 26.3906 8.47277C26.3193 8.34904 26.2213 8.24276 26.1037 8.16168C25.9861 8.08059 25.8519 8.02673 25.7109 8.00402L22.8398 7.59387L22.4062 7.16027L21.9961 4.28918C21.9734 4.14817 21.9195 4.014 21.8384 3.89642C21.7574 3.77885 21.6511 3.68083 21.5273 3.60949C20.5533 3.05658 19.514 2.62748 18.4336 2.33215C18.2963 2.29257 18.1516 2.28573 18.0112 2.31219C17.8708 2.33865 17.7385 2.39766 17.625 2.48449L15.3047 4.21887H14.6953L12.375 2.48449C12.2615 2.39766 12.1292 2.33865 11.9888 2.31219C11.8484 2.28573 11.7037 2.29257 11.5664 2.33215C10.486 2.62748 9.44671 3.05658 8.47266 3.60949C8.34892 3.68083 8.24265 3.77885 8.16156 3.89642C8.08048 4.014 8.02662 4.14817 8.00391 4.28918L7.59375 7.16027L7.16016 7.59387L4.28906 8.00402C4.14806 8.02673 4.01388 8.08059 3.89631 8.16168C3.77873 8.24276 3.68071 8.34904 3.60938 8.47277C3.05647 9.44683 2.62737 10.4861 2.33203 11.5665C2.29245 11.7038 2.28562 11.8485 2.31208 11.9889C2.33853 12.1294 2.39755 12.2616 2.48438 12.3751L4.23047 14.6954V15.2931L2.48438 17.6251C2.39755 17.7386 2.33853 17.8709 2.31208 18.0113C2.28562 18.1517 2.29245 18.2964 2.33203 18.4337C2.62737 19.5141 3.05647 20.5534 3.60938 21.5275C3.68071 21.6512 3.77873 21.7575 3.89631 21.8386C4.01388 21.9196 4.14806 21.9735 4.28906 21.9962L7.16016 22.4064L7.59375 22.84L8.00391 25.7111C8.02662 25.8521 8.08048 25.9862 8.16156 26.1038C8.24265 26.2214 8.34892 26.3194 8.47266 26.3907C9.44671 26.9436 10.486 27.3727 11.5664 27.6681C11.6464 27.6912 11.7292 27.7031 11.8125 27.7032C12.0158 27.7059 12.214 27.6398 12.375 27.5157L14.6953 25.7814H15.3047L17.625 27.5157C17.7385 27.6026 17.8708 27.6616 18.0112 27.688C18.1516 27.7145 18.2963 27.7077 18.4336 27.6681C19.514 27.3727 20.5533 26.9436 21.5273 26.3907C21.6511 26.3194 21.7574 26.2214 21.8384 26.1038C21.9195 25.9862 21.9734 25.8521 21.9961 25.7111L22.4062 22.8282C22.5469 22.6876 22.7109 22.5353 22.8281 22.4064L25.7109 21.9962C25.8519 21.9735 25.9861 21.9196 26.1037 21.8386C26.2213 21.7575 26.3193 21.6512 26.3906 21.5275C26.9435 20.5534 27.3726 19.5141 27.668 18.4337C27.7076 18.2964 27.7144 18.1517 27.6879 18.0113C27.6615 17.8709 27.6025 17.7386 27.5156 17.6251ZM24.9727 20.2032L22.2422 20.59C22.0314 20.6245 21.8379 20.7274 21.6914 20.8829C21.5508 21.0353 21.1172 21.4806 20.9062 21.6681C20.7351 21.8152 20.6228 22.0191 20.5898 22.2423L20.2031 24.9728C19.6194 25.2843 19.0073 25.5394 18.375 25.7345L16.1602 24.0704C15.9819 23.9373 15.7607 23.8747 15.5391 23.8946H14.4609C14.2393 23.8747 14.0181 23.9373 13.8398 24.0704L11.625 25.7345C10.9927 25.5394 10.3806 25.2843 9.79688 24.9728L9.41016 22.2423C9.37724 22.0191 9.26489 21.8152 9.09375 21.6681C8.82258 21.4321 8.56806 21.1775 8.33203 20.9064C8.18495 20.7352 7.98106 20.6229 7.75781 20.59L5.02735 20.2032C4.72068 19.6172 4.46581 19.0055 4.26563 18.3751L5.92969 16.1603C6.05035 15.9886 6.11576 15.7842 6.11719 15.5743C6.10547 15.3634 6.09375 14.754 6.10547 14.4611C6.12546 14.2394 6.06286 14.0182 5.92969 13.84L4.26563 11.6251C4.46581 10.9947 4.72068 10.383 5.02735 9.79699L7.75781 9.41027C7.98106 9.37735 8.18495 9.26501 8.33203 9.09387C8.56806 8.82269 8.82258 8.56818 9.09375 8.33215C9.26489 8.18506 9.37724 7.98118 9.41016 7.75793L9.79688 5.02746C10.3829 4.7208 10.9946 4.46592 11.625 4.26574L13.8398 5.9298C14.0181 6.06298 14.2393 6.12558 14.4609 6.10558C14.8125 6.09387 15.1875 6.09387 15.5391 6.10558C15.7607 6.12558 15.9819 6.06298 16.1602 5.9298L18.375 4.26574C19.0073 4.46082 19.6194 4.71588 20.2031 5.02746L20.5898 7.75793C20.6228 7.98118 20.7351 8.18506 20.9062 8.33215C21.1774 8.56818 21.4319 8.82269 21.668 9.09387C21.8151 9.26501 22.0189 9.37735 22.2422 9.41027L24.9727 9.79699C25.2842 10.3807 25.5393 10.9929 25.7344 11.6251L24.0703 13.84C23.9497 14.0116 23.8842 14.2161 23.8828 14.4259C23.8945 14.6368 23.9062 15.2462 23.8945 15.5392C23.8745 15.7608 23.9371 15.982 24.0703 16.1603L25.7344 18.3751C25.5393 19.0074 25.2842 19.6195 24.9727 20.2032Z" fill="#FF003D"/>
</svg>
