<svg width="30" height="30" viewBox="0 0 30 30" fill="none" xmlns="http://www.w3.org/2000/svg">
<path d="M15.0001 8.43749C13.7022 8.43749 12.4334 8.82238 11.3542 9.54347C10.275 10.2646 9.43386 11.2895 8.93716 12.4886C8.44046 13.6878 8.3105 15.0073 8.56371 16.2803C8.81693 17.5533 9.44195 18.7226 10.3597 19.6404C11.2775 20.5582 12.4468 21.1832 13.7198 21.4364C14.9928 21.6896 16.3123 21.5597 17.5115 21.063C18.7106 20.5663 19.7355 19.7251 20.4566 18.6459C21.1777 17.5667 21.5626 16.2979 21.5626 15C21.5626 13.2595 20.8712 11.5903 19.6405 10.3596C18.4098 9.1289 16.7406 8.43749 15.0001 8.43749ZM15.0001 19.6875C14.073 19.6875 13.1667 19.4126 12.3959 18.8975C11.625 18.3824 11.0242 17.6504 10.6694 16.7938C10.3146 15.9373 10.2218 14.9948 10.4027 14.0855C10.5836 13.1762 11.03 12.341 11.6856 11.6854C12.3411 11.0299 13.1763 10.5834 14.0856 10.4026C14.9949 10.2217 15.9374 10.3145 16.7939 10.6693C17.6505 11.0241 18.3826 11.6249 18.8976 12.3958C19.4127 13.1666 19.6876 14.0729 19.6876 15C19.6876 16.2432 19.1938 17.4355 18.3147 18.3146C17.4356 19.1936 16.2433 19.6875 15.0001 19.6875ZM27.5157 17.625L25.7696 15.3047C25.7814 15.0937 25.7696 14.8711 25.7696 14.707L27.5157 12.375C27.6026 12.2615 27.6616 12.1292 27.688 11.9888C27.7145 11.8484 27.7077 11.7037 27.6681 11.5664C27.3727 10.486 26.9436 9.44671 26.3907 8.47265C26.3194 8.34892 26.2214 8.24264 26.1038 8.16156C25.9862 8.08047 25.8521 8.02661 25.7111 8.0039L22.84 7.59374L22.4064 7.16015L21.9962 4.28906C21.9735 4.14805 21.9196 4.01388 21.8386 3.8963C21.7575 3.77873 21.6512 3.68071 21.5275 3.60937C20.5534 3.05646 19.5141 2.62736 18.4337 2.33202C18.2964 2.29245 18.1517 2.28561 18.0113 2.31207C17.8709 2.33853 17.7386 2.39754 17.6251 2.48437L15.3048 4.21874H14.6954L12.3751 2.48437C12.2616 2.39754 12.1294 2.33853 11.9889 2.31207C11.8485 2.28561 11.7038 2.29245 11.5665 2.33202C10.4861 2.62736 9.44683 3.05646 8.47277 3.60937C8.34904 3.68071 8.24276 3.77873 8.16168 3.8963C8.08059 4.01388 8.02673 4.14805 8.00402 4.28906L7.59387 7.16015L7.16027 7.59374L4.28918 8.0039C4.14817 8.02661 4.014 8.08047 3.89642 8.16156C3.77885 8.24264 3.68083 8.34892 3.60949 8.47265C3.05658 9.44671 2.62748 10.486 2.33215 11.5664C2.29257 11.7037 2.28573 11.8484 2.31219 11.9888C2.33865 12.1292 2.39766 12.2615 2.48449 12.375L4.23058 14.6953V15.293L2.48449 17.625C2.39766 17.7385 2.33865 17.8708 2.31219 18.0112C2.28573 18.1516 2.29257 18.2963 2.33215 18.4336C2.62748 19.514 3.05658 20.5533 3.60949 21.5273C3.68083 21.6511 3.77885 21.7573 3.89642 21.8384C4.014 21.9195 4.14817 21.9734 4.28918 21.9961L7.16027 22.4062L7.59387 22.8398L8.00402 25.7109C8.02673 25.8519 8.08059 25.9861 8.16168 26.1037C8.24276 26.2213 8.34904 26.3193 8.47277 26.3906C9.44683 26.9435 10.4861 27.3726 11.5665 27.668C11.6465 27.6911 11.7293 27.703 11.8126 27.7031C12.0159 27.7058 12.2141 27.6397 12.3751 27.5156L14.6954 25.7812H15.3048L17.6251 27.5156C17.7386 27.6024 17.8709 27.6615 18.0113 27.6879C18.1517 27.7144 18.2964 27.7075 18.4337 27.668C19.5141 27.3726 20.5534 26.9435 21.5275 26.3906C21.6512 26.3193 21.7575 26.2213 21.8386 26.1037C21.9196 25.9861 21.9735 25.8519 21.9962 25.7109L22.4064 22.8281C22.547 22.6875 22.7111 22.5351 22.8282 22.4062L25.7111 21.9961C25.8521 21.9734 25.9862 21.9195 26.1038 21.8384C26.2214 21.7573 26.3194 21.6511 26.3907 21.5273C26.9436 20.5533 27.3727 19.514 27.6681 18.4336C27.7077 18.2963 27.7145 18.1516 27.688 18.0112C27.6616 17.8708 27.6026 17.7385 27.5157 17.625ZM24.9728 20.2031L22.2423 20.5898C22.0315 20.6244 21.838 20.7273 21.6915 20.8828C21.5509 21.0351 21.1173 21.4805 20.9064 21.668C20.7352 21.815 20.6229 22.0189 20.59 22.2422L20.2032 24.9727C19.6195 25.2842 19.0074 25.5393 18.3751 25.7344L16.1603 24.0703C15.982 23.9371 15.7608 23.8745 15.5392 23.8945H14.4611C14.2394 23.8745 14.0182 23.9371 13.84 24.0703L11.6251 25.7344C10.9929 25.5393 10.3807 25.2842 9.79699 24.9727L9.41027 22.2422C9.37735 22.0189 9.26501 21.815 9.09387 21.668C8.82269 21.4319 8.56818 21.1774 8.33215 20.9062C8.18506 20.7351 7.98118 20.6228 7.75793 20.5898L5.02746 20.2031C4.7208 19.6171 4.46592 19.0054 4.26574 18.375L5.9298 16.1601C6.05046 15.9885 6.11587 15.7841 6.1173 15.5742C6.10558 15.3633 6.09387 14.7539 6.10558 14.4609C6.12558 14.2393 6.06298 14.0181 5.9298 13.8398L4.26574 11.625C4.46592 10.9946 4.7208 10.3829 5.02746 9.79687L7.75793 9.41015C7.98118 9.37723 8.18506 9.26488 8.33215 9.09374C8.56818 8.82257 8.82269 8.56806 9.09387 8.33203C9.26501 8.18494 9.37735 7.98105 9.41027 7.75781L9.79699 5.02734C10.383 4.72067 10.9947 4.4658 11.6251 4.26562L13.84 5.92968C14.0182 6.06285 14.2394 6.12546 14.4611 6.10546C14.8126 6.09374 15.1876 6.09374 15.5392 6.10546C15.7608 6.12546 15.982 6.06285 16.1603 5.92968L18.3751 4.26562C19.0074 4.46069 19.6195 4.71576 20.2032 5.02734L20.59 7.75781C20.6229 7.98105 20.7352 8.18494 20.9064 8.33203C21.1775 8.56806 21.4321 8.82257 21.6681 9.09374C21.8152 9.26488 22.0191 9.37723 22.2423 9.41015L24.9728 9.79687C25.2843 10.3806 25.5394 10.9927 25.7345 11.625L24.0704 13.8398C23.9498 14.0115 23.8844 14.2159 23.8829 14.4258C23.8946 14.6367 23.9064 15.2461 23.8946 15.5391C23.8747 15.7607 23.9373 15.9819 24.0704 16.1601L25.7345 18.375C25.5394 19.0072 25.2843 19.6194 24.9728 20.2031Z" fill="white"/>
</svg>
