<svg width="16" height="20" viewBox="0 0 16 20" fill="none" xmlns="http://www.w3.org/2000/svg">
<path d="M8.275 17C8.475 16.9833 8.646 16.904 8.788 16.762C8.93 16.62 9.00067 16.4493 9 16.25C9 16.0167 8.925 15.829 8.775 15.687C8.625 15.545 8.43333 15.4827 8.2 15.5C7.51667 15.55 6.79167 15.3623 6.025 14.937C5.25833 14.5117 4.775 13.741 4.575 12.625C4.54167 12.4417 4.45433 12.2917 4.313 12.175C4.17167 12.0583 4.009 12 3.825 12C3.59167 12 3.4 12.0877 3.25 12.263C3.1 12.4383 3.05 12.6423 3.1 12.875C3.38333 14.3917 4.05 15.475 5.1 16.125C6.15 16.775 7.20833 17.0667 8.275 17ZM8 20C5.71667 20 3.81233 19.2167 2.287 17.65C0.761667 16.0833 -0.00066623 14.1333 4.36872e-07 11.8C4.36872e-07 10.1333 0.662667 8.32067 1.988 6.362C3.31333 4.40333 5.31733 2.28267 8 0C10.6833 2.28333 12.6877 4.40433 14.013 6.363C15.3383 8.32167 16.0007 10.134 16 11.8C16 14.1333 15.2373 16.0833 13.712 17.65C12.1867 19.2167 10.2827 20 8 20ZM8 18C9.73333 18 11.1667 17.4123 12.3 16.237C13.4333 15.0617 14 13.5827 14 11.8C14 10.5833 13.4957 9.20833 12.487 7.675C11.4783 6.14167 9.98267 4.46667 8 2.65C6.01667 4.46667 4.521 6.14167 3.513 7.675C2.505 9.20833 2.00067 10.5833 2 11.8C2 13.5833 2.56667 15.0627 3.7 16.238C4.83333 17.4133 6.26667 18.0007 8 18Z" fill="white"/>
</svg>
